# xmcd CD database file
#
# Track frame offsets:
#	150
#	17237
#	31678
#	40777
#	60026
#	71560
#	91446
#	109878
#	131364
#	143009
#	161446
#
# Disc length: 2415 seconds
#
# Revision: 12
# Processed by: cddbd v1.5.2PL0 Copyright (c) Steve Scherf et al.
# Submitted via: CDex 1.73
#
DISCID=82096d0b
DTITLE=Garth Brooks - The Chase
DYEAR=1992
DGENRE=Country
TTITLE0=We Shall Be Free
TTITLE1=Somewhere Other Than The Night
TTITLE2=Mr. Right
TTITLE3=Every Now And Then
TTITLE4=Walking After Midnight
TTITLE5=Dixie Chicken
TTITLE6=Learning To Live Again
TTITLE7=That Summer
TTITLE8=Something With A Ring To It
TTITLE9=Night Rider's Lament
TTITLE10=Face To Face
EXTD=YEAR: 1992
EXTT0=
EXTT1=
EXTT2=
EXTT3=
EXTT4=
EXTT5=
EXTT6=
EXTT7=
EXTT8=
EXTT9=
EXTT10=
PLAYORDER=
